<?xml version="1.0" encoding="utf-8"?>
<!-- Generator: Adobe Illustrator 23.0.2, SVG Export Plug-In . SVG Version: 6.00 Build 0)  -->
<svg version="1.1" id="Calque_1" xmlns="http://www.w3.org/2000/svg" xmlns:xlink="http://www.w3.org/1999/xlink" x="0px" y="0px"
	 viewBox="0 0 244 258" style="enable-background:new 0 0 244 258;" xml:space="preserve">
<style type="text/css">
	.st0{fill:#373737;}
</style>
<g>
	<path class="st0" d="M109.15,125.09C93.8,109.82,79.39,95.5,65,81.17c-4.96-4.94-9.95-9.85-14.83-14.86
		c-4.23-4.35-4.59-10.08-1.04-13.84c3.67-3.89,9.74-3.7,14.19,0.73c18.19,18.1,36.32,36.25,54.43,54.43
		c1.16,1.17,1.93,2.74,3.16,4.52C136.18,96.8,150.5,82.39,164.83,68c4.94-4.96,9.85-9.95,14.86-14.83
		c4.35-4.23,10.08-4.59,13.84-1.04c3.89,3.67,3.7,9.74-0.73,14.19c-18.1,18.19-36.25,36.32-54.43,54.43
		c-1.17,1.16-2.74,1.93-4.52,3.16c15.35,15.26,29.75,29.58,44.15,43.92c4.96,4.94,9.95,9.85,14.83,14.86
		c4.23,4.35,4.59,10.08,1.04,13.84c-3.67,3.89-9.74,3.7-14.19-0.73c-18.19-18.1-36.32-36.25-54.43-54.43
		c-1.16-1.17-1.93-2.74-3.16-4.52C106.82,152.2,92.5,166.61,78.17,181c-4.94,4.96-9.85,9.95-14.86,14.83
		c-4.35,4.23-10.08,4.59-13.84,1.04c-3.89-3.67-3.7-9.74,0.73-14.19c18.1-18.19,36.25-36.32,54.43-54.43
		C105.79,127.08,107.36,126.31,109.15,125.09z"/>
</g>
</svg>
