<?xml version="1.0" encoding="utf-8"?>
<!-- Generator: Adobe Illustrator 23.0.2, SVG Export Plug-In . SVG Version: 6.00 Build 0)  -->
<svg version="1.1" id="Calque_1" xmlns="http://www.w3.org/2000/svg" xmlns:xlink="http://www.w3.org/1999/xlink" x="0px" y="0px"
	 viewBox="0 0 153 150" style="enable-background:new 0 0 153 150;" xml:space="preserve">
<style type="text/css">
	.st0{fill:#8E9FBB;}
</style>
<g>
	<path class="st0" d="M77.48,135.2c-0.14,0-0.27,0-0.41,0c-0.27-0.25-0.51-0.53-0.8-0.74c-4.86-3.62-9.81-7.13-14.58-10.86
		c-7.46-5.84-14.59-12.06-21.25-18.82c-4.38-4.45-8.52-9.1-12.26-14.09c-3.91-5.21-7.38-10.71-10.04-16.68
		c-1.59-3.58-2.93-7.26-3.75-11.1c-0.45-2.09-0.79-4.2-1.19-6.31c0-3.14,0-6.28,0-9.42c0.26-1.47,0.5-2.94,0.78-4.41
		c1.34-7.22,4.21-13.72,9.17-19.19c4.81-5.32,10.67-8.83,17.84-9.93c1.1-0.17,2.22-0.3,3.32-0.44c2.25,0,4.5,0,6.76,0
		c0.4,0.07,0.79,0.17,1.2,0.22c4.28,0.45,8.35,1.59,12.1,3.74c4.13,2.37,7.46,5.67,10.63,9.16c0.76,0.84,1.51,1.7,2.21,2.48
		c2.38-2.45,4.59-4.86,6.94-7.12c3.72-3.58,8.06-6.15,13.12-7.36c2.04-0.49,4.14-0.75,6.22-1.12c2.25,0,4.5,0,6.76,0
		c0.36,0.07,0.72,0.18,1.09,0.2c5.73,0.34,10.83,2.4,15.35,5.82c7.29,5.53,11.52,13.03,13.56,21.84c0.47,2.02,0.75,4.08,1.12,6.12
		c0,3.14,0,6.28,0,9.42c-0.07,0.23-0.17,0.45-0.2,0.68c-0.74,6.75-2.85,13.1-5.85,19.14c-4.63,9.32-10.86,17.53-18.01,25.03
		c-4.16,4.36-8.56,8.49-13,12.56c-7.01,6.43-14.56,12.2-22.27,17.77C80.49,132.89,78.99,134.06,77.48,135.2z"/>
</g>
</svg>
