<?xml version="1.0" encoding="utf-8"?>
<!-- Generator: Adobe Illustrator 23.0.2, SVG Export Plug-In . SVG Version: 6.00 Build 0)  -->
<svg version="1.1" id="Calque_1" xmlns="http://www.w3.org/2000/svg" xmlns:xlink="http://www.w3.org/1999/xlink" x="0px" y="0px"
	 viewBox="0 0 109 107" style="enable-background:new 0 0 109 107;" xml:space="preserve">
<style type="text/css">
	.st0{fill:#C3CEE1;}
</style>
<g>
	<path class="st0" d="M97.5,82c-0.2,0.7-0.4,1.3-0.7,2c-1.6,4.5-5.6,7.2-10.6,7.2c-17.6,0-35.1,0-52.7,0c-6.6,0-11.2-4.7-11.3-11.3
		c0-3.3,0-6.6,0-10c1.8,0,3.4,0,5.3,0c0,2.3,0,4.6,0,6.9c0,1,0,2,0,3.1c0.1,3.7,2.2,5.9,6,6c6.2,0,12.3,0,18.5,0
		c11.2,0,22.4,0,33.6,0c4.4,0,6.5-2.1,6.5-6.4c0-17.2,0-34.5,0-51.7c0-4.3-2.1-6.4-6.5-6.4c-17.2,0-34.4,0-51.5,0
		c-4.5,0-6.5,2.1-6.5,6.5c0,3.1,0,6.2,0,9.4c-1.8,0-3.4,0-5.6,0c0.3-4.6,0-9.2,0.9-13.7C23.7,19.1,28.2,16,33,16
		c17.9,0,35.9,0,53.8,0c5.1,0,9.2,3.4,10.4,8.5c0.1,0.2,0.2,0.4,0.3,0.7C97.5,44,97.5,63,97.5,82z"/>
	<path class="st0" d="M11.5,52.6c0.9-1.3,2.2-1.7,3.7-1.7c18.1,0,36.1,0,54.2,0c0.7,0,1.5,0,2.7,0c-0.7-0.8-1.1-1.2-1.5-1.7
		c-4.1-4.1-8.2-8.2-12.3-12.3c-1-1-1.5-2.3-0.5-3.4c0.6-0.7,1.9-1,2.9-1.2c0.5-0.1,1.2,0.6,1.7,1.1C68.2,39.2,74,45,79.8,50.8
		c1.9,1.9,1.9,3.4,0,5.2C74,61.9,68.2,67.7,62.4,73.5c-1.5,1.5-3.2,1.6-4.3,0.4s-0.9-2.7,0.5-4.2c4-4,8-8,12-12
		c0.4-0.4,0.8-0.9,1.5-1.7c-1.2,0-1.9,0-2.7,0c-18.1,0-36.1,0-54.2,0c-1.6,0-2.8-0.4-3.7-1.7C11.5,53.8,11.5,53.2,11.5,52.6z"/>
</g>
</svg>
