<?xml version="1.0" encoding="utf-8"?>
<!-- Generator: Adobe Illustrator 23.0.2, SVG Export Plug-In . SVG Version: 6.00 Build 0)  -->
<svg version="1.1" id="Calque_1" xmlns="http://www.w3.org/2000/svg" xmlns:xlink="http://www.w3.org/1999/xlink" x="0px" y="0px"
	 viewBox="0 0 109 107" style="enable-background:new 0 0 109 107;" xml:space="preserve">
<style type="text/css">
	.st0{fill:#CDCDCD;}
</style>
<g>
	<path class="st0" d="M58.87,99c-2.5,0-5,0-7.5,0c-0.3-0.1-0.59-0.27-0.9-0.31c-18.58-2.53-31.09-12.65-37.43-30.25
		c-1.16-3.22-1.56-6.72-2.32-10.09c0-2.37,0-4.74,0-7.1c0.11-0.56,0.26-1.13,0.34-1.69c2.4-17.16,11.56-29.27,27.47-36.01
		c4.03-1.71,8.55-2.26,12.85-3.34c2.5,0,5,0,7.5,0c0.37,0.11,0.74,0.27,1.12,0.33c17.9,2.48,30.23,12.14,36.76,28.95
		c1.4,3.61,1.87,7.57,2.78,11.37c0,2.5,0,5,0,7.5c-0.12,0.44-0.29,0.87-0.34,1.32c-1.86,17.39-14.42,32.52-31.14,37.36
		C65.05,97.89,61.93,98.35,58.87,99z M79.12,86.43c13.03-9.57,19.7-27.89,14.33-45.07c-5.18-16.59-21.06-27.37-39.37-26.9
		c-18.26,0.47-33.45,11.91-37.79,28.51c-4.5,17.19,2.76,34.24,13.5,42.28c4.24-5.7,10.06-9.05,17.42-10.94
		c-1.21-1.69-2.22-3.07-3.21-4.47c-1.24-1.75-2.71-3.39-3.63-5.29c-1.95-4.05-1.88-8.47-2.17-12.88
		c-0.72-10.94,12.76-19.41,22.42-14.27c4.49,2.38,8.1,5.45,8.76,10.63c0.47,3.66,0.35,7.49-0.12,11.16
		c-0.54,4.28-2.2,8.19-5.59,11.21c-1.09,0.97-1.69,2.49-2.66,3.99C68.76,76.31,74.8,80,79.12,86.43z"/>
</g>
</svg>
