<?xml version="1.0" encoding="utf-8"?>
<!-- Generator: Adobe Illustrator 23.0.2, SVG Export Plug-In . SVG Version: 6.00 Build 0)  -->
<svg version="1.1" id="Calque_1" xmlns="http://www.w3.org/2000/svg" xmlns:xlink="http://www.w3.org/1999/xlink" x="0px" y="0px"
	 viewBox="0 0 388.4 384" style="enable-background:new 0 0 388.4 384;" xml:space="preserve">
<style type="text/css">
	.st0{fill:#475069;}
</style>
<g>
	<path class="st0" d="M194.8,34c87.6,0.4,157.7,71.1,157.4,158.8c-0.3,87.3-71.6,157.8-159,157.2c-87.2-0.6-157.3-71.3-157-158.4
		C36.5,104,107.4,33.6,194.8,34z M177.8,254.7c0-42.2,0-83.6,0-125.2c-10.5,0-20.5,0-30.6,0c0,42,0,83.4,0,125.2
		C157.6,254.7,167.4,254.7,177.8,254.7z M210.6,129.3c0,42.3,0,83.7,0,125.4c10.4,0,20.2,0,30.5,0c0-41.9,0-83.5,0-125.4
		C230.8,129.3,220.9,129.3,210.6,129.3z"/>
</g>
</svg>
