<?xml version="1.0" encoding="utf-8"?>
<!-- Generator: Adobe Illustrator 23.0.2, SVG Export Plug-In . SVG Version: 6.00 Build 0)  -->
<svg version="1.1" id="Calque_1" xmlns="http://www.w3.org/2000/svg" xmlns:xlink="http://www.w3.org/1999/xlink" x="0px" y="0px"
	 viewBox="0 0 187 201" style="enable-background:new 0 0 187 201;" xml:space="preserve">
<style type="text/css">
	.st0{fill:#515151;}
</style>
<g>
	<path class="st0" d="M79.2,102.5c0,25.8,0,51.5,0,77.3c0,7-1.2,8.2-8.2,8.2c-8.8,0-17.6,0-26.5,0c-5.5,0-7.2-1.7-7.2-7.3
		c0-52.4,0-104.8,0-157.2c0-5.9,1.6-7.4,7.5-7.4c9,0,18,0,27,0c5.9,0,7.3,1.5,7.4,7.5C79.2,49.9,79.2,76.2,79.2,102.5z"/>
	<path class="st0" d="M107.8,101.7c0-25.9,0-51.9,0-77.8c0-6.4,1.4-7.8,7.6-7.8c8.8,0,17.6,0,26.5,0c6.2,0,7.8,1.5,7.8,7.7
		c0,52.2,0,104.4,0,156.6c0,5.9-1.6,7.5-7.5,7.5c-8.8,0-17.6,0-26.5,0c-6.6,0-7.9-1.3-8-7.9C107.8,153.9,107.8,127.8,107.8,101.7z"
		/>
</g>
</svg>
