<?xml version="1.0" encoding="utf-8"?>
<!-- Generator: Adobe Illustrator 23.0.2, SVG Export Plug-In . SVG Version: 6.00 Build 0)  -->
<svg version="1.1" id="Calque_1" xmlns="http://www.w3.org/2000/svg" xmlns:xlink="http://www.w3.org/1999/xlink" x="0px" y="0px"
	 viewBox="0 0 109 107" style="enable-background:new 0 0 109 107;" xml:space="preserve">
<style type="text/css">
	.st0{fill:#EBF0F7;}
</style>
<g>
	<path class="st0" d="M21.1,53.5c0-9.8,0-19.6,0-29.4c0-2.1,1.2-3.6,3.2-4c0.9-0.2,1.7,0.1,2.5,0.5c7.5,3.8,15,7.5,22.5,11.3
		C61.4,37.9,73.5,44,85.6,50c1.5,0.7,2.3,1.8,2.3,3.5c0,1.7-0.8,2.8-2.3,3.6C66,66.8,46.4,76.6,26.8,86.4c-2.9,1.5-5.8-0.3-5.8-3.6
		C21.1,73,21.1,63.3,21.1,53.5z"/>
</g>
</svg>
