<?xml version="1.0" encoding="utf-8"?>
<!-- Generator: Adobe Illustrator 23.0.2, SVG Export Plug-In . SVG Version: 6.00 Build 0)  -->
<svg version="1.1" id="Calque_1" xmlns="http://www.w3.org/2000/svg" xmlns:xlink="http://www.w3.org/1999/xlink" x="0px" y="0px"
	 viewBox="0 0 156 145" style="enable-background:new 0 0 156 145;" xml:space="preserve">
<style type="text/css">
	.st0{fill:#475069;}
</style>
<g>
	<path class="st0" d="M24,73.7c0-1.8,0-3.6,0-5.4c0.2-1.5,0.5-3,0.7-4.5c3-22.8,20.1-41.4,42.6-46.2c3-0.6,6-1,9-1.6
		c1.8,0,3.6,0,5.4,0c2.1,0.3,4.1,0.7,6.2,1c21.9,3.4,40,20.5,44.6,42.2c0.6,3,1,6,1.6,9.1c0,1.8,0,3.6,0,5.4c-0.3,2.1-0.7,4.1-1,6.2
		c-3.5,22.1-20.5,40-42.3,44.6c-3,0.6-6,1-9,1.6c-1.8,0-3.6,0-5.4,0c-2.1-0.3-4.1-0.7-6.2-1c-22.1-3.5-40-20.5-44.6-42.2
		C24.9,79.7,24.5,76.7,24,73.7z M79.2,107.9c6.9-0.4,14.1-0.7,21.2-1.4c5-0.5,7.7-3.2,8.2-8.1c0.5-4.3,0.4-8.6,0.6-12.9
		c0.1-3.3-0.8-6.5-3.2-8.7c-2.7-2.6-5.9-4.7-8.9-7c-1.3-1-2.5-0.7-3.8,0.5c-7.8,6.7-18.6,7.2-26.8,1.5c-4.4-3.1-4.5-3.1-9.1,0
		c-1.3,0.9-2.6,1.9-3.8,3c-2.6,2.5-4.6,5.4-4.7,9.1c-0.2,4.1-0.1,8.1,0.1,12.2c0.3,6.8,2.8,9.7,9.4,10.5
		C65.2,107.3,72.1,107.4,79.2,107.9z M78.9,73.3c10.5,0,19.4-8.8,19.5-19.2c0-10.5-8.9-19.6-19.3-19.6c-10.4,0-19.5,9-19.4,19.2
		C59.6,64.5,68.3,73.3,78.9,73.3z"/>
</g>
<image style="overflow:visible;" width="1861" height="613" xlink:href="../../Downloads/couleurs (1).PNG"  transform="matrix(0.75 0 0 0.75 6 1227)">
</image>
</svg>
